<svg width="20" height="22" viewBox="0 0 20 22" fill="none" xmlns="http://www.w3.org/2000/svg">
<path fill-rule="evenodd" clip-rule="evenodd" d="M5.5 5V5.75H3.51287C2.55332 5.75 1.74862 6.47444 1.64817 7.42872L0.385015 19.4287C0.268481 20.5358 1.13652 21.5 2.24971 21.5H17.7504C18.8636 21.5 19.7317 20.5358 19.6151 19.4287L18.352 7.42872C18.2515 6.47444 17.4468 5.75 16.4873 5.75H14.5V5C14.5 2.51472 12.4853 0.5 10 0.5C7.51472 0.5 5.5 2.51472 5.5 5ZM10 2C8.34315 2 7 3.34315 7 5V5.75H13V5C13 3.34315 11.6569 2 10 2ZM7 10.25C7 11.9069 8.34315 13.25 10 13.25C11.6569 13.25 13 11.9069 13 10.25V9.5C13 9.08579 13.3358 8.75 13.75 8.75C14.1642 8.75 14.5 9.08579 14.5 9.5V10.25C14.5 12.7353 12.4853 14.75 10 14.75C7.51472 14.75 5.5 12.7353 5.5 10.25V9.5C5.5 9.08579 5.83579 8.75 6.25 8.75C6.66421 8.75 7 9.08579 7 9.5V10.25Z" fill="#0F172A"/>
</svg>
